# xmcd CD database file
#
# Track frame offsets:
#	150
#	15585
#	31720
#	46860
#	62682
#	71862
#	84577
#	102117
#	125217
#	135217
#	146557
#	165512
#	182367
#	203845
#	214132
#	223725
#	251567
#	263650
#
# Disc length: 3688 seconds
#
# Revision: 0
# Processed by: cddbd v1.5PL3 Copyright (c) Steve Scherf et al.
# Submitted via: CDex 1.50
#
DISCID=fb0e6612
DTITLE=Ottilie Patterson - With Chris Barbers Jazzband 1955-1958
DYEAR=1900
DGENRE=Jazz
TTITLE0=Poor Man's Blues
TTITLE1=Make Me A Pallet On The Floor
TTITLE2=Trouble In Mind
TTITLE3=Careless Love
TTITLE4=I Wish I Could Shimmy Like My Sister Kate
TTITLE5=Ugly Child
TTITLE6=I Can't Give You Anything But Love
TTITLE7=New St. Louis Blues
TTITLE8=Beale St. Blues
TTITLE9='Taint No Sin
TTITLE10=Jailhouse Blues
TTITLE11=Shipwreck Blues
TTITLE12=Lowland Blues
TTITLE13=I Love My Baby
TTITLE14=Kay Cee Rider 
TTITLE15=Just A Closer Walk With Thee
TTITLE16=Trombone Cholly
TTITLE17=Lawdy Lawdy Blues
EXTD=
EXTT0=
EXTT1=
EXTT2=
EXTT3=
EXTT4=
EXTT5=
EXTT6=
EXTT7=
EXTT8=
EXTT9=
EXTT10=
EXTT11=
EXTT12=
EXTT13=
EXTT14=
EXTT15=
EXTT16=
EXTT17=
PLAYORDER=
